<svg xmlns="http://www.w3.org/2000/svg" xmlns:xlink="http://www.w3.org/1999/xlink" width="1563" zoomAndPan="magnify" viewBox="0 0 1172.25 1172.249948" height="1563" preserveAspectRatio="xMidYMid meet" version="1.0"><defs><clipPath id="c467ae12b4"><path d="M 336.972656 381.675781 L 537.042969 381.675781 L 537.042969 606.753906 L 336.972656 606.753906 Z M 336.972656 381.675781 " clip-rule="nonzero"/></clipPath><clipPath id="84d521a107"><path d="M 342.222656 381.675781 L 531.796875 381.675781 C 534.691406 381.675781 537.042969 384.027344 537.042969 386.925781 L 537.042969 601.476562 C 537.042969 604.375 534.691406 606.722656 531.796875 606.722656 L 342.222656 606.722656 C 339.324219 606.722656 336.972656 604.375 336.972656 601.476562 L 336.972656 386.925781 C 336.972656 384.027344 339.324219 381.675781 342.222656 381.675781 Z M 342.222656 381.675781 " clip-rule="nonzero"/></clipPath><clipPath id="319c345987"><path d="M 634.417969 564.710938 L 834.484375 564.710938 L 834.484375 789.789062 L 634.417969 789.789062 Z M 634.417969 564.710938 " clip-rule="nonzero"/></clipPath><clipPath id="7e1e3edac8"><path d="M 829.238281 789.789062 L 639.664062 789.789062 C 636.765625 789.789062 634.417969 787.4375 634.417969 784.542969 L 634.417969 569.988281 C 634.417969 567.089844 636.765625 564.742188 639.664062 564.742188 L 829.238281 564.742188 C 832.136719 564.742188 834.484375 567.089844 834.484375 569.988281 L 834.484375 784.542969 C 834.484375 787.4375 832.136719 789.789062 829.238281 789.789062 Z M 829.238281 789.789062 " clip-rule="nonzero"/></clipPath><clipPath id="7047189916"><path d="M 529.847656 57.964844 L 832.015625 57.964844 L 832.015625 397.910156 L 529.847656 397.910156 Z M 529.847656 57.964844 " clip-rule="nonzero"/></clipPath><clipPath id="334bed7951"><path d="M 535.09375 57.964844 L 826.769531 57.964844 C 829.667969 57.964844 832.015625 60.316406 832.015625 63.214844 L 832.015625 392.617188 C 832.015625 395.515625 829.667969 397.863281 826.769531 397.863281 L 535.09375 397.863281 C 532.195312 397.863281 529.847656 395.515625 529.847656 392.617188 L 529.847656 63.214844 C 529.847656 60.316406 532.195312 57.964844 535.09375 57.964844 Z M 535.09375 57.964844 " clip-rule="nonzero"/></clipPath><clipPath id="a7ee63fcac"><path d="M 339.464844 773.515625 L 641.636719 773.515625 L 641.636719 1113.460938 L 339.464844 1113.460938 Z M 339.464844 773.515625 " clip-rule="nonzero"/></clipPath><clipPath id="e91abb0ced"><path d="M 636.386719 1113.460938 L 344.710938 1113.460938 C 341.8125 1113.460938 339.464844 1111.109375 339.464844 1108.214844 L 339.464844 778.808594 C 339.464844 775.910156 341.8125 773.5625 344.710938 773.5625 L 636.386719 773.5625 C 639.285156 773.5625 641.636719 775.910156 641.636719 778.808594 L 641.636719 1108.214844 C 641.636719 1111.109375 639.285156 1113.460938 636.386719 1113.460938 Z M 636.386719 1113.460938 " clip-rule="nonzero"/></clipPath></defs><g clip-path="url(#c467ae12b4)"><g clip-path="url(#84d521a107)"><path fill="#2864b4" d="M 336.972656 381.675781 L 537.042969 381.675781 L 537.042969 606.753906 L 336.972656 606.753906 Z M 336.972656 381.675781 " fill-opacity="1" fill-rule="nonzero"/></g></g><g clip-path="url(#319c345987)"><g clip-path="url(#7e1e3edac8)"><path fill="#2864b4" d="M 834.484375 789.789062 L 634.417969 789.789062 L 634.417969 564.710938 L 834.484375 564.710938 Z M 834.484375 789.789062 " fill-opacity="1" fill-rule="nonzero"/></g></g><g clip-path="url(#7047189916)"><g clip-path="url(#334bed7951)"><path fill="#2864b4" d="M 529.847656 57.964844 L 832.015625 57.964844 L 832.015625 397.910156 L 529.847656 397.910156 Z M 529.847656 57.964844 " fill-opacity="1" fill-rule="nonzero"/></g></g><g clip-path="url(#a7ee63fcac)"><g clip-path="url(#e91abb0ced)"><path fill="#2864b4" d="M 641.636719 1113.460938 L 339.464844 1113.460938 L 339.464844 773.515625 L 641.636719 773.515625 Z M 641.636719 1113.460938 " fill-opacity="1" fill-rule="nonzero"/></g></g><path stroke-linecap="butt" transform="matrix(5.701796, -5.894425, 5.894425, 5.701796, 499.392106, 456.695229)" fill="none" stroke-linejoin="miter" d="M 0.000106456 2.500022 L 14.214395 2.500005 " stroke="#2864b4" stroke-width="5" stroke-opacity="1" stroke-miterlimit="4"/><path stroke-linecap="butt" transform="matrix(-5.701796, 5.894425, -5.894425, -5.701796, 715.846689, 820.328563)" fill="none" stroke-linejoin="miter" d="M 0.00011895 2.500097 L 14.214408 2.50008 " stroke="#2864b4" stroke-width="5" stroke-opacity="1" stroke-miterlimit="4"/></svg>