<svg xmlns="http://www.w3.org/2000/svg" xmlns:xlink="http://www.w3.org/1999/xlink" width="805" zoomAndPan="magnify" viewBox="0 0 603.75 187.499995" height="250" preserveAspectRatio="xMidYMid meet" version="1.0"><defs><g/><clipPath id="832a13aaec"><path d="M 102.671875 66.867188 L 129.667969 66.867188 L 129.667969 96.285156 L 102.671875 96.285156 Z M 102.671875 66.867188 " clip-rule="nonzero"/></clipPath><clipPath id="5c03c44a8e"><path d="M 107.90625 66.867188 L 124.429688 66.867188 C 125.820312 66.867188 127.152344 67.417969 128.132812 68.398438 C 129.113281 69.382812 129.667969 70.714844 129.667969 72.101562 L 129.667969 91.003906 C 129.667969 92.390625 129.113281 93.722656 128.132812 94.703125 C 127.152344 95.6875 125.820312 96.238281 124.429688 96.238281 L 107.90625 96.238281 C 106.519531 96.238281 105.1875 95.6875 104.207031 94.703125 C 103.222656 93.722656 102.671875 92.390625 102.671875 91.003906 L 102.671875 72.101562 C 102.671875 70.714844 103.222656 69.382812 104.207031 68.398438 C 105.1875 67.417969 106.519531 66.867188 107.90625 66.867188 Z M 107.90625 66.867188 " clip-rule="nonzero"/></clipPath><clipPath id="0f7bee6933"><path d="M 142.808594 90.710938 L 169.804688 90.710938 L 169.804688 120.128906 L 142.808594 120.128906 Z M 142.808594 90.710938 " clip-rule="nonzero"/></clipPath><clipPath id="d25de36cff"><path d="M 164.566406 120.128906 L 148.042969 120.128906 C 146.65625 120.128906 145.324219 119.578125 144.34375 118.597656 C 143.359375 117.617188 142.808594 116.285156 142.808594 114.894531 L 142.808594 95.996094 C 142.808594 94.605469 143.359375 93.273438 144.34375 92.292969 C 145.324219 91.308594 146.65625 90.757812 148.042969 90.757812 L 164.566406 90.757812 C 165.957031 90.757812 167.289062 91.308594 168.269531 92.292969 C 169.25 93.273438 169.804688 94.605469 169.804688 95.996094 L 169.804688 114.894531 C 169.804688 116.285156 169.25 117.617188 168.269531 118.597656 C 167.289062 119.578125 165.957031 120.128906 164.566406 120.128906 Z M 164.566406 120.128906 " clip-rule="nonzero"/></clipPath><clipPath id="a51007adc1"><path d="M 128.695312 24.617188 L 169.464844 24.617188 L 169.464844 69 L 128.695312 69 Z M 128.695312 24.617188 " clip-rule="nonzero"/></clipPath><clipPath id="ab35d92a2f"><path d="M 133.929688 24.617188 L 164.230469 24.617188 C 167.121094 24.617188 169.464844 26.960938 169.464844 29.851562 L 169.464844 63.742188 C 169.464844 66.632812 167.121094 68.980469 164.230469 68.980469 L 133.929688 68.980469 C 131.039062 68.980469 128.695312 66.632812 128.695312 63.742188 L 128.695312 29.851562 C 128.695312 26.960938 131.039062 24.617188 133.929688 24.617188 Z M 133.929688 24.617188 " clip-rule="nonzero"/></clipPath><clipPath id="924ede719f"><path d="M 102.996094 118 L 143.765625 118 L 143.765625 162.375 L 102.996094 162.375 Z M 102.996094 118 " clip-rule="nonzero"/></clipPath><clipPath id="33e8658dc7"><path d="M 138.53125 162.375 L 108.234375 162.375 C 105.339844 162.375 102.996094 160.03125 102.996094 157.140625 L 102.996094 123.25 C 102.996094 120.355469 105.339844 118.011719 108.234375 118.011719 L 138.53125 118.011719 C 141.421875 118.011719 143.765625 120.355469 143.765625 123.25 L 143.765625 157.140625 C 143.765625 160.03125 141.421875 162.375 138.53125 162.375 Z M 138.53125 162.375 " clip-rule="nonzero"/></clipPath></defs><g clip-path="url(#832a13aaec)"><g clip-path="url(#5c03c44a8e)"><path fill="#2864b4" d="M 102.671875 66.867188 L 129.667969 66.867188 L 129.667969 96.285156 L 102.671875 96.285156 Z M 102.671875 66.867188 " fill-opacity="1" fill-rule="nonzero"/></g></g><g clip-path="url(#0f7bee6933)"><g clip-path="url(#d25de36cff)"><path fill="#2864b4" d="M 169.804688 120.128906 L 142.808594 120.128906 L 142.808594 90.710938 L 169.804688 90.710938 Z M 169.804688 120.128906 " fill-opacity="1" fill-rule="nonzero"/></g></g><g clip-path="url(#a51007adc1)"><g clip-path="url(#ab35d92a2f)"><path fill="#2864b4" d="M 128.695312 24.617188 L 169.464844 24.617188 L 169.464844 69.050781 L 128.695312 69.050781 Z M 128.695312 24.617188 " fill-opacity="1" fill-rule="nonzero"/></g></g><g clip-path="url(#924ede719f)"><g clip-path="url(#33e8658dc7)"><path fill="#2864b4" d="M 143.765625 162.375 L 102.996094 162.375 L 102.996094 117.941406 L 143.765625 117.941406 Z M 143.765625 162.375 " fill-opacity="1" fill-rule="nonzero"/></g></g><path stroke-linecap="butt" transform="matrix(0.756849, -0.756849, 0.756849, 0.756849, 124.682542, 76.625432)" fill="none" stroke-linejoin="miter" d="M 0.000980399 2.49843 L 14.449761 2.501011 " stroke="#2864b4" stroke-width="5" stroke-opacity="1" stroke-miterlimit="4"/><path stroke-linecap="butt" transform="matrix(-0.756849, 0.756849, -0.756849, -0.756849, 153.695723, 124.148363)" fill="none" stroke-linejoin="miter" d="M 0.000319849 2.498243 L 14.4491 2.500824 " stroke="#2864b4" stroke-width="5" stroke-opacity="1" stroke-miterlimit="4"/><g fill="#2864b4" fill-opacity="1"><g transform="translate(194.468877, 101.494132)"><g><path d="M 13.890625 0 L 2.5 0 L 2.5 -32.609375 L 13.890625 -32.609375 C 17.210938 -32.609375 19.851562 -32.328125 21.8125 -31.765625 C 23.769531 -31.210938 25.335938 -30.332031 26.515625 -29.125 C 27.691406 -27.90625 28.550781 -26.265625 29.09375 -24.203125 C 29.632812 -22.140625 29.90625 -19.515625 29.90625 -16.328125 C 29.90625 -10.679688 28.640625 -6.546875 26.109375 -3.921875 C 23.578125 -1.304688 19.503906 0 13.890625 0 Z M 20.28125 -23.25 C 19.789062 -23.976562 19.078125 -24.503906 18.140625 -24.828125 C 17.210938 -25.160156 15.796875 -25.328125 13.890625 -25.328125 L 10.5625 -25.328125 L 10.5625 -7.546875 L 13.890625 -7.546875 C 15.753906 -7.546875 17.15625 -7.695312 18.09375 -8 C 19.03125 -8.3125 19.757812 -8.816406 20.28125 -9.515625 C 20.726562 -10.171875 21.054688 -11.046875 21.265625 -12.140625 C 21.472656 -13.234375 21.578125 -14.628906 21.578125 -16.328125 C 21.578125 -18.054688 21.472656 -19.46875 21.265625 -20.5625 C 21.054688 -21.65625 20.726562 -22.550781 20.28125 -23.25 Z M 20.28125 -23.25 "/></g></g></g><g fill="#2864b4" fill-opacity="1"><g transform="translate(225.768099, 101.494132)"><g><path d="M 10.5625 -32.609375 L 10.5625 0 L 2.5 0 L 2.5 -32.609375 Z M 10.5625 -32.609375 "/></g></g></g><g fill="#2864b4" fill-opacity="1"><g transform="translate(238.818111, 101.494132)"><g><path d="M 20.953125 -12.109375 L 15.34375 -12.109375 L 15.34375 -18.609375 L 28.5 -18.609375 L 28.5 -1.453125 C 27.53125 -1.003906 25.796875 -0.5625 23.296875 -0.125 C 20.796875 0.300781 18.523438 0.515625 16.484375 0.515625 C 10.835938 0.515625 6.910156 -0.78125 4.703125 -3.375 C 2.503906 -5.976562 1.40625 -10.296875 1.40625 -16.328125 C 1.40625 -22.148438 2.6875 -26.40625 5.25 -29.09375 C 7.8125 -31.78125 11.90625 -33.125 17.53125 -33.125 C 19.570312 -33.125 21.394531 -33.078125 23 -32.984375 C 24.613281 -32.898438 25.859375 -32.773438 26.734375 -32.609375 L 26.734375 -25.53125 C 25.585938 -25.632812 24.222656 -25.710938 22.640625 -25.765625 C 21.066406 -25.816406 19.363281 -25.84375 17.53125 -25.84375 C 15.550781 -25.84375 14.082031 -25.664062 13.125 -25.3125 C 12.175781 -24.96875 11.457031 -24.363281 10.96875 -23.5 C 10.519531 -22.8125 10.195312 -21.882812 10 -20.71875 C 9.8125 -19.5625 9.71875 -18.097656 9.71875 -16.328125 C 9.71875 -14.628906 9.804688 -13.207031 9.984375 -12.0625 C 10.160156 -10.914062 10.4375 -10 10.8125 -9.3125 C 11.300781 -8.375 11.988281 -7.710938 12.875 -7.328125 C 13.757812 -6.953125 15.132812 -6.765625 17 -6.765625 C 17.625 -6.765625 18.273438 -6.789062 18.953125 -6.84375 C 19.628906 -6.894531 20.296875 -6.972656 20.953125 -7.078125 Z M 20.953125 -12.109375 "/></g></g></g><g fill="#2864b4" fill-opacity="1"><g transform="translate(268.869529, 101.494132)"><g><path d="M 10.5625 -32.609375 L 10.5625 0 L 2.5 0 L 2.5 -32.609375 Z M 10.5625 -32.609375 "/></g></g></g><g fill="#2864b4" fill-opacity="1"><g transform="translate(281.919541, 101.494132)"><g><path d="M 26.46875 -32.609375 L 26.46875 -25.328125 L 17.578125 -25.328125 L 17.578125 0 L 9.515625 0 L 9.515625 -25.328125 L 0.625 -25.328125 L 0.625 -32.609375 Z M 26.46875 -32.609375 "/></g></g></g><g fill="#2864b4" fill-opacity="1"><g transform="translate(309.0074, 101.494132)"><g><path d="M 14.875 -12.171875 L 8.265625 -13.734375 C 5.628906 -14.347656 3.832031 -15.296875 2.875 -16.578125 C 1.925781 -17.867188 1.453125 -19.707031 1.453125 -22.09375 C 1.453125 -25.875 2.445312 -28.65625 4.4375 -30.4375 C 6.4375 -32.226562 9.535156 -33.125 13.734375 -33.125 C 15.460938 -33.125 17.003906 -33.050781 18.359375 -32.90625 C 19.710938 -32.769531 20.957031 -32.53125 22.09375 -32.1875 L 22.09375 -24.953125 C 19.457031 -25.410156 17.644531 -25.671875 16.65625 -25.734375 C 15.675781 -25.804688 14.648438 -25.84375 13.578125 -25.84375 C 12.117188 -25.84375 11.054688 -25.597656 10.390625 -25.109375 C 9.734375 -24.628906 9.40625 -23.816406 9.40625 -22.671875 C 9.40625 -22.117188 9.507812 -21.691406 9.71875 -21.390625 C 9.925781 -21.097656 10.328125 -20.882812 10.921875 -20.75 L 17.15625 -19.296875 C 18.957031 -18.878906 20.253906 -18.46875 21.046875 -18.0625 C 21.847656 -17.664062 22.492188 -17.15625 22.984375 -16.53125 C 23.535156 -15.875 23.941406 -15.023438 24.203125 -13.984375 C 24.460938 -12.941406 24.59375 -11.675781 24.59375 -10.1875 C 24.59375 -6.414062 23.585938 -3.6875 21.578125 -2 C 19.566406 -0.320312 16.445312 0.515625 12.21875 0.515625 C 10.070312 0.515625 8.023438 0.382812 6.078125 0.125 C 4.140625 -0.132812 2.632812 -0.453125 1.5625 -0.828125 L 1.5625 -8.46875 C 2.945312 -8.019531 4.59375 -7.664062 6.5 -7.40625 C 8.40625 -7.144531 10.3125 -7.015625 12.21875 -7.015625 C 13.75 -7.015625 14.804688 -7.203125 15.390625 -7.578125 C 15.984375 -7.960938 16.28125 -8.726562 16.28125 -9.875 C 16.28125 -10.601562 16.179688 -11.128906 15.984375 -11.453125 C 15.796875 -11.785156 15.425781 -12.023438 14.875 -12.171875 Z M 14.875 -12.171875 "/></g></g></g><g fill="#2864b4" fill-opacity="1"><g transform="translate(334.431519, 101.494132)"><g><path d="M 26.46875 -32.609375 L 26.46875 -25.328125 L 17.578125 -25.328125 L 17.578125 0 L 9.515625 0 L 9.515625 -25.328125 L 0.625 -25.328125 L 0.625 -32.609375 Z M 26.46875 -32.609375 "/></g></g></g><g fill="#2864b4" fill-opacity="1"><g transform="translate(361.519378, 101.494132)"><g><path d="M 10.5625 -10.5 L 10.5625 0 L 2.5 0 L 2.5 -32.609375 L 14.40625 -32.609375 C 19.425781 -32.609375 22.992188 -31.757812 25.109375 -30.0625 C 27.222656 -28.363281 28.28125 -25.535156 28.28125 -21.578125 C 28.28125 -18.910156 27.71875 -16.734375 26.59375 -15.046875 C 25.46875 -13.367188 23.757812 -12.148438 21.46875 -11.390625 L 29.4375 0 L 19.765625 0 L 13 -10.5 Z M 20.125 -21.578125 C 20.125 -22.960938 19.707031 -23.929688 18.875 -24.484375 C 18.039062 -25.046875 16.550781 -25.328125 14.40625 -25.328125 L 10.5625 -25.328125 L 10.5625 -17 L 14.40625 -17 C 16.550781 -17 18.039062 -17.335938 18.875 -18.015625 C 19.707031 -18.691406 20.125 -19.878906 20.125 -21.578125 Z M 20.125 -21.578125 "/></g></g></g><g fill="#2864b4" fill-opacity="1"><g transform="translate(391.518794, 101.494132)"><g><path d="M 24.953125 -7.546875 L 24.953125 0 L 2.5 0 L 2.5 -32.609375 L 24.484375 -32.609375 L 24.484375 -25.328125 L 10.5625 -25.328125 L 10.5625 -19.921875 L 22.5625 -19.921875 L 22.5625 -13.15625 L 10.5625 -13.15625 L 10.5625 -7.546875 Z M 24.953125 -7.546875 "/></g></g></g><g fill="#2864b4" fill-opacity="1"><g transform="translate(417.774783, 101.494132)"><g><path d="M 8.3125 0 L -0.15625 0 L 11.90625 -32.609375 L 20.28125 -32.609375 L 32.03125 0 L 23.609375 0 L 21.890625 -5.453125 L 10.03125 -5.453125 Z M 15.90625 -24.59375 C 15.632812 -23.625 15.332031 -22.59375 15 -21.5 C 14.675781 -20.40625 14.128906 -18.628906 13.359375 -16.171875 L 12.015625 -11.859375 L 19.859375 -11.859375 L 18.515625 -16.171875 C 18.066406 -17.484375 17.613281 -18.875 17.15625 -20.34375 C 16.707031 -21.820312 16.289062 -23.238281 15.90625 -24.59375 Z M 15.90625 -24.59375 "/></g></g></g><g fill="#2864b4" fill-opacity="1"><g transform="translate(449.749896, 101.494132)"><g><path d="M 35.15625 -32.609375 L 35.15625 0 L 27.609375 0 L 27.609375 -19.546875 L 22.046875 -6.234375 L 15.5 -6.234375 L 10.03125 -19.546875 L 10.03125 0 L 2.5 0 L 2.5 -32.609375 L 12.328125 -32.609375 L 18.921875 -16.171875 L 25.6875 -32.609375 Z M 35.15625 -32.609375 "/></g></g></g><g fill="#2864b4" fill-opacity="1"><g transform="translate(197.674387, 131.695008)"><g><path d="M 3.875 0.125 C 3.3125 0.125 2.804688 0.0507812 2.359375 -0.09375 C 1.921875 -0.25 1.554688 -0.445312 1.265625 -0.6875 C 0.972656 -0.9375 0.753906 -1.210938 0.609375 -1.515625 L 1.171875 -2.203125 L 1.328125 -2.203125 C 1.878906 -1.273438 2.726562 -0.8125 3.875 -0.8125 C 4.539062 -0.8125 5.035156 -0.945312 5.359375 -1.21875 C 5.679688 -1.5 5.84375 -1.890625 5.84375 -2.390625 C 5.84375 -2.679688 5.789062 -2.925781 5.6875 -3.125 C 5.582031 -3.332031 5.40625 -3.503906 5.15625 -3.640625 C 4.90625 -3.785156 4.570312 -3.910156 4.15625 -4.015625 L 3.109375 -4.28125 C 2.335938 -4.46875 1.769531 -4.757812 1.40625 -5.15625 C 1.039062 -5.5625 0.859375 -6.078125 0.859375 -6.703125 C 0.859375 -7.140625 0.96875 -7.53125 1.1875 -7.875 C 1.414062 -8.226562 1.75 -8.5 2.1875 -8.6875 C 2.625 -8.882812 3.144531 -8.984375 3.75 -8.984375 C 4.414062 -8.984375 4.976562 -8.890625 5.4375 -8.703125 C 5.894531 -8.515625 6.265625 -8.234375 6.546875 -7.859375 L 6.03125 -7.171875 L 5.875 -7.171875 C 5.625 -7.484375 5.320312 -7.710938 4.96875 -7.859375 C 4.625 -8.003906 4.21875 -8.078125 3.75 -8.078125 C 3.132812 -8.078125 2.671875 -7.957031 2.359375 -7.71875 C 2.046875 -7.476562 1.890625 -7.148438 1.890625 -6.734375 C 1.890625 -6.328125 2.003906 -6.003906 2.234375 -5.765625 C 2.472656 -5.535156 2.863281 -5.359375 3.40625 -5.234375 L 4.46875 -4.96875 C 5.320312 -4.769531 5.941406 -4.460938 6.328125 -4.046875 C 6.710938 -3.628906 6.90625 -3.09375 6.90625 -2.4375 C 6.90625 -1.9375 6.789062 -1.492188 6.5625 -1.109375 C 6.34375 -0.722656 6.003906 -0.421875 5.546875 -0.203125 C 5.097656 0.015625 4.539062 0.125 3.875 0.125 Z M 3.875 0.125 "/></g></g></g><g fill="#2864b4" fill-opacity="1"><g transform="translate(209.651817, 131.695008)"><g><path d="M 6.90625 -8.859375 L 6.90625 -7.96875 L 4.140625 -7.96875 L 4.140625 0 L 3.109375 0 L 3.109375 -7.96875 L 0.328125 -7.96875 L 0.328125 -8.859375 Z M 6.90625 -8.859375 "/></g></g></g><g fill="#2864b4" fill-opacity="1"><g transform="translate(221.271981, 131.695008)"><g><path d="M 1.34375 0 L 1.34375 -8.859375 L 4.5625 -8.859375 C 5.15625 -8.859375 5.648438 -8.757812 6.046875 -8.5625 C 6.453125 -8.363281 6.753906 -8.085938 6.953125 -7.734375 C 7.160156 -7.378906 7.265625 -6.957031 7.265625 -6.46875 C 7.265625 -5.914062 7.125 -5.457031 6.84375 -5.09375 C 6.570312 -4.738281 6.144531 -4.472656 5.5625 -4.296875 L 5.5625 -4.171875 C 5.851562 -4.054688 6.085938 -3.878906 6.265625 -3.640625 C 6.453125 -3.398438 6.617188 -3.039062 6.765625 -2.5625 L 7.59375 0 L 6.515625 0 L 5.640625 -2.703125 C 5.523438 -3.023438 5.398438 -3.273438 5.265625 -3.453125 C 5.128906 -3.640625 4.957031 -3.769531 4.75 -3.84375 C 4.539062 -3.925781 4.273438 -3.96875 3.953125 -3.96875 L 2.375 -3.96875 L 2.375 0 Z M 4.53125 -4.859375 C 5.082031 -4.859375 5.492188 -4.984375 5.765625 -5.234375 C 6.035156 -5.492188 6.171875 -5.890625 6.171875 -6.421875 C 6.171875 -6.941406 6.035156 -7.328125 5.765625 -7.578125 C 5.492188 -7.835938 5.082031 -7.96875 4.53125 -7.96875 L 2.375 -7.96875 L 2.375 -4.859375 Z M 4.53125 -4.859375 "/></g></g></g><g fill="#2864b4" fill-opacity="1"><g transform="translate(233.861, 131.695008)"><g><path d="M 2.375 -4.171875 L 2.375 -0.859375 L 6.890625 -0.859375 L 6.890625 0 L 1.34375 0 L 1.34375 -8.859375 L 6.796875 -8.859375 L 6.796875 -8 L 2.375 -8 L 2.375 -5.03125 L 6.28125 -5.03125 L 6.28125 -4.171875 Z M 2.375 -4.171875 "/></g></g></g><g fill="#2864b4" fill-opacity="1"><g transform="translate(245.729435, 131.695008)"><g><path d="M 7.96875 0 L 6.859375 0 L 6.046875 -2.421875 L 2.265625 -2.421875 L 1.4375 0 L 0.34375 0 L 3.4375 -8.859375 L 4.875 -8.859375 Z M 4.078125 -7.78125 L 2.5625 -3.296875 L 5.75 -3.296875 L 4.234375 -7.78125 Z M 4.078125 -7.78125 "/></g></g></g><g fill="#2864b4" fill-opacity="1"><g transform="translate(258.439562, 131.695008)"><g><path d="M 2.296875 0 L 1.34375 0 L 1.34375 -8.859375 L 2.890625 -8.859375 L 5.5625 -1.359375 L 5.6875 -1.359375 L 8.375 -8.859375 L 9.875 -8.859375 L 9.875 0 L 8.875 0 L 8.875 -7.234375 L 8.734375 -7.25 L 6.109375 0 L 5.078125 0 L 2.453125 -7.25 L 2.296875 -7.234375 Z M 2.296875 0 "/></g></g></g><g fill="#2864b4" fill-opacity="1"><g transform="translate(274.038087, 131.695008)"><g><path d="M 3.875 0.125 C 3.3125 0.125 2.804688 0.0507812 2.359375 -0.09375 C 1.921875 -0.25 1.554688 -0.445312 1.265625 -0.6875 C 0.972656 -0.9375 0.753906 -1.210938 0.609375 -1.515625 L 1.171875 -2.203125 L 1.328125 -2.203125 C 1.878906 -1.273438 2.726562 -0.8125 3.875 -0.8125 C 4.539062 -0.8125 5.035156 -0.945312 5.359375 -1.21875 C 5.679688 -1.5 5.84375 -1.890625 5.84375 -2.390625 C 5.84375 -2.679688 5.789062 -2.925781 5.6875 -3.125 C 5.582031 -3.332031 5.40625 -3.503906 5.15625 -3.640625 C 4.90625 -3.785156 4.570312 -3.910156 4.15625 -4.015625 L 3.109375 -4.28125 C 2.335938 -4.46875 1.769531 -4.757812 1.40625 -5.15625 C 1.039062 -5.5625 0.859375 -6.078125 0.859375 -6.703125 C 0.859375 -7.140625 0.96875 -7.53125 1.1875 -7.875 C 1.414062 -8.226562 1.75 -8.5 2.1875 -8.6875 C 2.625 -8.882812 3.144531 -8.984375 3.75 -8.984375 C 4.414062 -8.984375 4.976562 -8.890625 5.4375 -8.703125 C 5.894531 -8.515625 6.265625 -8.234375 6.546875 -7.859375 L 6.03125 -7.171875 L 5.875 -7.171875 C 5.625 -7.484375 5.320312 -7.710938 4.96875 -7.859375 C 4.625 -8.003906 4.21875 -8.078125 3.75 -8.078125 C 3.132812 -8.078125 2.671875 -7.957031 2.359375 -7.71875 C 2.046875 -7.476562 1.890625 -7.148438 1.890625 -6.734375 C 1.890625 -6.328125 2.003906 -6.003906 2.234375 -5.765625 C 2.472656 -5.535156 2.863281 -5.359375 3.40625 -5.234375 L 4.46875 -4.96875 C 5.320312 -4.769531 5.941406 -4.460938 6.328125 -4.046875 C 6.710938 -3.628906 6.90625 -3.09375 6.90625 -2.4375 C 6.90625 -1.9375 6.789062 -1.492188 6.5625 -1.109375 C 6.34375 -0.722656 6.003906 -0.421875 5.546875 -0.203125 C 5.097656 0.015625 4.539062 0.125 3.875 0.125 Z M 3.875 0.125 "/></g></g></g><g fill="#2864b4" fill-opacity="1"><g transform="translate(197.674387, 148.230145)"><g><path d="M 4.5 -8.859375 C 5.113281 -8.859375 5.640625 -8.75 6.078125 -8.53125 C 6.515625 -8.3125 6.847656 -8 7.078125 -7.59375 C 7.304688 -7.1875 7.421875 -6.707031 7.421875 -6.15625 C 7.421875 -5.613281 7.304688 -5.140625 7.078125 -4.734375 C 6.847656 -4.328125 6.515625 -4.015625 6.078125 -3.796875 C 5.640625 -3.578125 5.113281 -3.46875 4.5 -3.46875 L 2.375 -3.46875 L 2.375 0 L 1.34375 0 L 1.34375 -8.859375 Z M 4.484375 -4.359375 C 5.710938 -4.359375 6.328125 -4.957031 6.328125 -6.15625 C 6.328125 -7.363281 5.710938 -7.96875 4.484375 -7.96875 L 2.375 -7.96875 L 2.375 -4.359375 Z M 4.484375 -4.359375 "/></g></g></g><g fill="#2864b4" fill-opacity="1"><g transform="translate(210.136245, 148.230145)"><g><path d="M 2.375 -8.859375 L 2.375 -0.859375 L 6.640625 -0.859375 L 6.640625 0 L 1.34375 0 L 1.34375 -8.859375 Z M 2.375 -8.859375 "/></g></g></g><g fill="#2864b4" fill-opacity="1"><g transform="translate(221.544472, 148.230145)"><g><path d="M 7.96875 0 L 6.859375 0 L 6.046875 -2.421875 L 2.265625 -2.421875 L 1.4375 0 L 0.34375 0 L 3.4375 -8.859375 L 4.875 -8.859375 Z M 4.078125 -7.78125 L 2.5625 -3.296875 L 5.75 -3.296875 L 4.234375 -7.78125 Z M 4.078125 -7.78125 "/></g></g></g><g fill="#2864b4" fill-opacity="1"><g transform="translate(234.254598, 148.230145)"><g><path d="M 6.90625 -8.859375 L 6.90625 -7.96875 L 4.140625 -7.96875 L 4.140625 0 L 3.109375 0 L 3.109375 -7.96875 L 0.328125 -7.96875 L 0.328125 -8.859375 Z M 6.90625 -8.859375 "/></g></g></g><g fill="#2864b4" fill-opacity="1"><g transform="translate(245.874763, 148.230145)"><g><path d="M 6.546875 -8.859375 L 6.546875 -8 L 2.375 -8 L 2.375 -4.78125 L 6.125 -4.78125 L 6.125 -3.90625 L 2.375 -3.90625 L 2.375 0 L 1.34375 0 L 1.34375 -8.859375 Z M 6.546875 -8.859375 "/></g></g></g><g fill="#2864b4" fill-opacity="1"><g transform="translate(257.282991, 148.230145)"><g><path d="M 4.859375 0.125 C 4.085938 0.125 3.40625 -0.0351562 2.8125 -0.359375 C 2.21875 -0.691406 1.75 -1.195312 1.40625 -1.875 C 1.0625 -2.5625 0.890625 -3.410156 0.890625 -4.421875 C 0.890625 -5.441406 1.0625 -6.289062 1.40625 -6.96875 C 1.75 -7.644531 2.21875 -8.148438 2.8125 -8.484375 C 3.40625 -8.816406 4.085938 -8.984375 4.859375 -8.984375 C 5.628906 -8.984375 6.3125 -8.816406 6.90625 -8.484375 C 7.5 -8.148438 7.96875 -7.644531 8.3125 -6.96875 C 8.65625 -6.289062 8.828125 -5.441406 8.828125 -4.421875 C 8.828125 -3.410156 8.65625 -2.5625 8.3125 -1.875 C 7.96875 -1.195312 7.5 -0.691406 6.90625 -0.359375 C 6.3125 -0.0351562 5.628906 0.125 4.859375 0.125 Z M 4.859375 -0.84375 C 5.773438 -0.84375 6.476562 -1.128906 6.96875 -1.703125 C 7.46875 -2.273438 7.71875 -3.179688 7.71875 -4.421875 C 7.71875 -5.671875 7.46875 -6.582031 6.96875 -7.15625 C 6.476562 -7.726562 5.773438 -8.015625 4.859375 -8.015625 C 2.953125 -8.015625 2 -6.816406 2 -4.421875 C 2 -2.035156 2.953125 -0.84375 4.859375 -0.84375 Z M 4.859375 -0.84375 "/></g></g></g><g fill="#2864b4" fill-opacity="1"><g transform="translate(271.385845, 148.230145)"><g><path d="M 1.34375 0 L 1.34375 -8.859375 L 4.5625 -8.859375 C 5.15625 -8.859375 5.648438 -8.757812 6.046875 -8.5625 C 6.453125 -8.363281 6.753906 -8.085938 6.953125 -7.734375 C 7.160156 -7.378906 7.265625 -6.957031 7.265625 -6.46875 C 7.265625 -5.914062 7.125 -5.457031 6.84375 -5.09375 C 6.570312 -4.738281 6.144531 -4.472656 5.5625 -4.296875 L 5.5625 -4.171875 C 5.851562 -4.054688 6.085938 -3.878906 6.265625 -3.640625 C 6.453125 -3.398438 6.617188 -3.039062 6.765625 -2.5625 L 7.59375 0 L 6.515625 0 L 5.640625 -2.703125 C 5.523438 -3.023438 5.398438 -3.273438 5.265625 -3.453125 C 5.128906 -3.640625 4.957031 -3.769531 4.75 -3.84375 C 4.539062 -3.925781 4.273438 -3.96875 3.953125 -3.96875 L 2.375 -3.96875 L 2.375 0 Z M 4.53125 -4.859375 C 5.082031 -4.859375 5.492188 -4.984375 5.765625 -5.234375 C 6.035156 -5.492188 6.171875 -5.890625 6.171875 -6.421875 C 6.171875 -6.941406 6.035156 -7.328125 5.765625 -7.578125 C 5.492188 -7.835938 5.082031 -7.96875 4.53125 -7.96875 L 2.375 -7.96875 L 2.375 -4.859375 Z M 4.53125 -4.859375 "/></g></g></g><g fill="#2864b4" fill-opacity="1"><g transform="translate(283.974866, 148.230145)"><g><path d="M 2.296875 0 L 1.34375 0 L 1.34375 -8.859375 L 2.890625 -8.859375 L 5.5625 -1.359375 L 5.6875 -1.359375 L 8.375 -8.859375 L 9.875 -8.859375 L 9.875 0 L 8.875 0 L 8.875 -7.234375 L 8.734375 -7.25 L 6.109375 0 L 5.078125 0 L 2.453125 -7.25 L 2.296875 -7.234375 Z M 2.296875 0 "/></g></g></g></svg>